HIERARCHY
ROOT Hips
{
    OFFSET 0.000000 0.000000 0.000000
    CHANNELS 6 Xposition Yposition Zposition Zrotation Yrotation Xrotation
    JOINT Chest
    {
        OFFSET 0.000000 1.634758 -0.000000
        CHANNELS 3 Zrotation Yrotation Xrotation
        JOINT Chest2
        {
            OFFSET 0.000000 2.197341 0.000000
            CHANNELS 3 Zrotation Yrotation Xrotation
            JOINT Neck
            {
                OFFSET 0.000000 0.961544 0.000000
                CHANNELS 3 Zrotation Yrotation Xrotation
                JOINT Head
                {
                    OFFSET 0.000000 0.632542 -0.032565
                    CHANNELS 3 Zrotation Yrotation Xrotation
                    End Site
                    {
                        OFFSET -0.000001 0.439502 2.922845
                    }
                }
            }
            JOINT LeftCollar
            {
                OFFSET 0.167536 0.778237 -0.168280
                CHANNELS 3 Zrotation Yrotation Xrotation
                JOINT LeftShoulder
                {
                    OFFSET 0.831514 -0.002900 0.006458
                    CHANNELS 3 Zrotation Yrotation Xrotation
                    JOINT LeftElbow
                    {
                        OFFSET 2.272872 -0.026639 0.059314
                        CHANNELS 3 Zrotation Yrotation Xrotation
                        JOINT LeftWrist
                        {
                            OFFSET 2.081982 -0.024402 0.054333
                            CHANNELS 3 Zrotation Yrotation Xrotation
                            JOINT LeftHandThumb1
                            {
                                OFFSET 0.218903 -0.128645 0.283837
                                CHANNELS 3 Zrotation Yrotation Xrotation
                                JOINT LeftHandThumb2
                                {
                                    OFFSET 0.137157 -0.025101 0.077902
                                    CHANNELS 3 Zrotation Yrotation Xrotation
                                    JOINT LeftHandThumb3
                                    {
                                        OFFSET 0.163592 -0.061323 0.054922
                                        CHANNELS 3 Zrotation Yrotation Xrotation
                                        End Site
                                        {
                                            OFFSET 0.242814 -0.064473 0.093387
                                        }
                                    }
                                }
                            }
                            JOINT LeftHandFore1
                            {
                                OFFSET 0.767340 -0.016076 0.196678
                                CHANNELS 3 Zrotation Yrotation Xrotation
                                JOINT LeftHandFore2
                                {
                                    OFFSET 0.194910 -0.087741 0.036151
                                    CHANNELS 3 Zrotation Yrotation Xrotation
                                    JOINT LeftHandFore3
                                    {
                                        OFFSET 0.092875 -0.089218 0.013319
                                        CHANNELS 3 Zrotation Yrotation Xrotation
                                        End Site
                                        {
                                            OFFSET 0.097281 -0.166262 0.016137
                                        }
                                    }
                                }
                            }
                            JOINT LeftHandMiddle1
                            {
                                OFFSET 0.709887 -0.008320 0.018526
                                CHANNELS 3 Zrotation Yrotation Xrotation
                                JOINT LeftHandMiddle2
                                {
                                    OFFSET 0.224654 -0.096229 0.018290
                                    CHANNELS 3 Zrotation Yrotation Xrotation
                                    JOINT LeftHandMiddle3
                                    {
                                        OFFSET 0.112279 -0.093619 0.003456
                                        CHANNELS 3 Zrotation Yrotation Xrotation
                                        End Site
                                        {
                                            OFFSET 0.124215 -0.200489 0.002258
                                        }
                                    }
                                }
                            }
                            JOINT LeftHandRing1
                            {
                                OFFSET 0.743817 -0.005823 -0.153668
                                CHANNELS 3 Zrotation Yrotation Xrotation
                                JOINT LeftHandRing2
                                {
                                    OFFSET 0.318812 -0.149696 -0.026139
                                    CHANNELS 3 Zrotation Yrotation Xrotation
                                    JOINT LeftHandRing3
                                    {
                                        OFFSET 0.098079 -0.093764 -0.013936
                                        CHANNELS 3 Zrotation Yrotation Xrotation
                                        End Site
                                        {
                                            OFFSET 0.052405 -0.107176 -0.013671
                                        }
                                    }
                                }
                            }
                            JOINT LeftHandLittle1
                            {
                                OFFSET 0.689408 -0.053302 -0.308304
                                CHANNELS 3 Zrotation Yrotation Xrotation
                                JOINT LeftHandLittle2
                                {
                                    OFFSET 0.175349 -0.075526 -0.040032
                                    CHANNELS 3 Zrotation Yrotation Xrotation
                                    JOINT LeftHandLittle3
                                    {
                                        OFFSET 0.079813 -0.085301 -0.029154
                                        CHANNELS 3 Zrotation Yrotation Xrotation
                                        End Site
                                        {
                                            OFFSET 0.098803 -0.155258 -0.049208
                                        }
                                    }
                                }
                            }
                        }
                    }
                }
            }
            JOINT RightCollar
            {
                OFFSET -0.167536 0.778237 -0.168280
                CHANNELS 3 Zrotation Yrotation Xrotation
                JOINT RightShoulder
                {
                    OFFSET -0.831514 -0.002900 0.006457
                    CHANNELS 3 Zrotation Yrotation Xrotation
                    JOINT RightElbow
                    {
                        OFFSET -2.272872 -0.026639 0.059313
                        CHANNELS 3 Zrotation Yrotation Xrotation
                        JOINT RightWrist
                        {
                            OFFSET -2.081982 -0.024402 0.054331
                            CHANNELS 3 Zrotation Yrotation Xrotation
                            JOINT RightHandThumb1
                            {
                                OFFSET -0.218911 -0.128571 0.283837
                                CHANNELS 3 Zrotation Yrotation Xrotation
                                JOINT RightHandThumb2
                                {
                                    OFFSET -0.137157 -0.025101 0.077902
                                    CHANNELS 3 Zrotation Yrotation Xrotation
                                    JOINT RightHandThumb3
                                    {
                                        OFFSET -0.177153 -0.015995 0.043594
                                        CHANNELS 3 Zrotation Yrotation Xrotation
                                        End Site
                                        {
                                            OFFSET -0.239268 0.020167 0.119082
                                        }
                                    }
                                }
                            }
                            JOINT RightHandFore1
                            {
                                OFFSET -0.767344 -0.015991 0.196679
                                CHANNELS 3 Zrotation Yrotation Xrotation
                                JOINT RightHandFore2
                                {
                                    OFFSET -0.215182 -0.023988 0.010864
                                    CHANNELS 3 Zrotation Yrotation Xrotation
                                    JOINT RightHandFore3
                                    {
                                        OFFSET -0.127999 -0.018333 0.006493
                                        CHANNELS 3 Zrotation Yrotation Xrotation
                                        End Site
                                        {
                                            OFFSET -0.191454 -0.022769 0.013914
                                        }
                                    }
                                }
                            }
                            JOINT RightHandMiddle1
                            {
                                OFFSET -0.709887 -0.008302 0.018525
                                CHANNELS 3 Zrotation Yrotation Xrotation
                                JOINT RightHandMiddle2
                                {
                                    OFFSET -0.243299 -0.028704 0.006624
                                    CHANNELS 3 Zrotation Yrotation Xrotation
                                    JOINT RightHandMiddle3
                                    {
                                        OFFSET -0.145226 -0.016685 0.003951
                                        CHANNELS 3 Zrotation Yrotation Xrotation
                                        End Site
                                        {
                                            OFFSET -0.233653 -0.031672 0.005780
                                        }
                                    }
                                }
                            }
                            JOINT RightHandRing1
                            {
                                OFFSET -0.743819 -0.005785 -0.153669
                                CHANNELS 3 Zrotation Yrotation Xrotation
                                JOINT RightHandRing2
                                {
                                    OFFSET -0.349398 -0.050607 -0.009675
                                    CHANNELS 3 Zrotation Yrotation Xrotation
                                    JOINT RightHandRing3
                                    {
                                        OFFSET -0.134041 -0.023657 -0.008853
                                        CHANNELS 3 Zrotation Yrotation Xrotation
                                        End Site
                                        {
                                            OFFSET -0.116640 -0.027483 -0.007747
                                        }
                                    }
                                }
                            }
                            JOINT RightHandLittle1
                            {
                                OFFSET -0.689403 -0.053298 -0.308303
                                CHANNELS 3 Zrotation Yrotation Xrotation
                                JOINT RightHandLittle2
                                {
                                    OFFSET -0.193254 -0.018751 -0.018875
                                    CHANNELS 3 Zrotation Yrotation Xrotation
                                    JOINT RightHandLittle3
                                    {
                                        OFFSET -0.116992 -0.025993 -0.011520
                                        CHANNELS 3 Zrotation Yrotation Xrotation
                                        End Site
                                        {
                                            OFFSET -0.188440 -0.012318 -0.025042
                                        }
                                    }
                                }
                            }
                        }
                    }
                }
            }
        }
    }
    JOINT LeftHip
    {
        OFFSET 0.685143 0.673822 -0.044491
        CHANNELS 3 Zrotation Yrotation Xrotation
        JOINT LeftKnee
        {
            OFFSET 0.085364 -3.750208 0.017676
            CHANNELS 3 Zrotation Yrotation Xrotation
            JOINT LeftAnkle
            {
                OFFSET 0.094583 -4.155206 0.019585
                CHANNELS 3 Zrotation Yrotation Xrotation
                JOINT LeftToe
                {
                    OFFSET -0.000000 -0.395925 0.621478
                    CHANNELS 3 Zrotation Yrotation Xrotation
                    End Site
                    {
                        OFFSET -0.000000 -0.077878 0.321152
                    }
                }
            }
        }
    }
    JOINT RightHip
    {
        OFFSET -0.685143 0.673822 -0.044492
        CHANNELS 3 Zrotation Yrotation Xrotation
        JOINT RightKnee
        {
            OFFSET -0.085364 -3.750208 0.017677
            CHANNELS 3 Zrotation Yrotation Xrotation
            JOINT RightAnkle
            {
                OFFSET -0.094583 -4.155206 0.019585
                CHANNELS 3 Zrotation Yrotation Xrotation
                JOINT RightToe
                {
                    OFFSET -0.000000 -0.395925 0.621478
                    CHANNELS 3 Zrotation Yrotation Xrotation
                    End Site
                    {
                        OFFSET -0.000000 -0.077878 0.321152
                    }
                }
            }
        }
    }
}
MOTION
Frames: 4
Frame Time: 0.033333
0.698911 8.657275 0.728434 -180.000000 44.999966 163.957184 -0.000007 -0.000014 -2.998841 0.000000 0.000003 -3.645281 11.361060 6.231686 7.068340 -0.625487 11.971991 15.468774 -11.564981 -5.652886 -0.019767 -48.286560 -4.379447 4.726611 0.129780 -33.332397 -0.440874 -6.930284 5.921576 6.294600 0.000007 -0.000000 -0.000001 -0.000003 -0.000005 -0.000005 0.000000 -0.000002 0.000003 -0.000005 -0.000005 -0.000007 0.000000 -0.000002 0.000000 0.000003 0.000000 -0.000004 0.000002 -0.000005 0.000001 -0.000002 0.000003 -0.000002 -0.000005 0.000002 0.000001 -0.000002 -0.000001 -0.000006 -0.000002 -0.000005 -0.000001 0.000003 0.000003 0.000003 0.000002 -0.000003 0.000001 0.000005 -0.000000 0.000001 0.000000 -0.000007 -0.000000 1.079190 2.938255 -0.010250 71.787018 42.461884 58.958267 -178.496124 36.494576 -179.511475 -48.161079 0.573363 43.168266 0.000000 0.000005 -0.000009 -0.000000 0.000003 0.000005 -0.000000 -0.000005 0.000010 -0.000003 -0.000001 -0.000005 -0.000004 -0.000001 -0.000005 -0.000000 0.000001 0.000002 0.000000 0.000002 -0.000009 -0.000003 -0.000001 0.000002 0.000001 -0.000000 0.000000 -0.000001 0.000001 -0.000009 -0.000001 0.000001 -0.000002 0.000003 0.000001 0.000000 -0.000000 0.000003 -0.000002 0.000002 0.000002 -0.000003 -0.000001 0.000002 -0.000002 0.759934 15.287526 6.638104 0.016581 0.207276 9.144858 8.641200 10.534109 -2.935444 0.000000 -0.000000 -0.000003 -2.156845 -31.053062 19.947990 -0.010579 -0.165811 7.304092 -9.506446 -15.058229 -12.837997 -0.000000 -0.000001 0.000003
0.698932 8.657296 0.728434 -180.000000 44.999969 163.957184 -0.000302 -0.000092 -2.998709 -0.000316 0.000027 -3.645129 11.354204 6.232138 7.067456 -0.625538 11.972927 15.467115 -11.565093 -5.653143 -0.019759 -48.285851 -4.384127 4.726384 0.129695 -33.322929 -0.440720 -6.930290 5.921576 6.294598 0.000003 0.000001 -0.000000 -0.000003 0.000002 -0.000007 0.000002 -0.000000 0.000001 -0.000007 0.000010 0.000014 -0.000005 -0.000000 0.000001 0.000000 -0.000001 -0.000002 0.000012 -0.000002 0.000012 -0.000002 0.000000 -0.000000 -0.000003 -0.000001 -0.000002 -0.000003 0.000000 0.000008 -0.000009 0.000001 -0.000001 0.000002 -0.000001 0.000002 -0.000005 -0.000000 0.000014 0.000003 -0.000000 -0.000002 0.000002 -0.000003 0.000001 1.080825 2.941863 -0.010267 71.792213 42.459839 58.958221 -178.495743 36.531281 -179.510803 -48.161079 0.573363 43.168270 -0.000010 -0.000016 0.000007 0.000002 0.000003 -0.000002 -0.000001 -0.000003 0.000005 -0.000002 -0.000005 0.000002 -0.000001 -0.000000 -0.000002 -0.000002 0.000000 -0.000002 -0.000001 -0.000003 0.000005 0.000000 -0.000000 0.000005 0.000001 -0.000001 -0.000003 -0.000007 -0.000004 0.000000 0.000001 0.000001 0.000002 0.000002 0.000001 -0.000002 0.000004 -0.000002 0.000010 0.000001 -0.000001 0.000002 -0.000001 0.000001 0.000000 0.760011 15.287663 6.641183 0.016561 0.207152 9.139512 8.641623 10.533744 -2.933304 -0.000002 -0.000003 -0.000000 -2.156789 -31.053415 19.955654 -0.010538 -0.165485 7.289629 -9.508718 -15.056734 -12.827943 0.000002 0.000003 0.000005
0.698995 8.657359 0.728437 -180.000000 44.999969 163.957184 -0.001194 -0.000374 -2.998312 -0.001228 0.000154 -3.644742 11.334307 6.233438 7.064897 -0.625686 11.975653 15.462304 -11.565298 -5.653930 -0.019720 -48.283875 -4.397931 4.725698 0.129445 -33.294868 -0.440247 -6.930286 5.921567 6.294603 -0.000002 0.000012 -0.000001 0.000009 0.000001 -0.000005 -0.000005 -0.000002 -0.000001 0.000000 0.000014 0.000005 -0.000002 0.000001 -0.000004 0.000002 -0.000004 -0.000003 0.000003 0.000000 0.000003 0.000002 0.000004 -0.000005 -0.000003 -0.000003 0.000001 0.000003 0.000009 -0.000002 -0.000002 0.000002 -0.000004 0.000010 -0.000007 -0.000005 0.000009 0.000005 0.000003 0.000010 -0.000000 0.000001 0.000002 0.000001 -0.000002 1.085493 2.952320 -0.010304 71.807503 42.453979 58.958412 -178.494598 36.637665 -179.508881 -48.161076 0.573363 43.168266 0.000008 -0.000005 0.000007 0.000000 0.000000 0.000002 0.000002 -0.000001 0.000005 0.000005 0.000004 0.000007 0.000000 -0.000000 0.000002 0.000001 -0.000001 0.000005 0.000003 0.000000 0.000005 -0.000003 -0.000001 0.000003 0.000002 0.000000 0.000002 0.000003 0.000000 -0.000010 -0.000001 -0.000000 0.000002 0.000000 -0.000004 0.000000 0.000012 0.000009 -0.000003 0.000004 -0.000001 0.000000 -0.000005 -0.000001 0.000002 0.760236 15.288057 6.649737 0.016509 0.206822 9.124692 8.642795 10.532681 -2.927454 -0.000000 -0.000005 0.000001 -2.156603 -31.054432 19.978498 -0.010414 -0.164509 7.246464 -9.515518 -15.052362 -12.798103 0.000000 -0.000000 0.000007
0.699098 8.657464 0.728440 -180.000000 44.999977 163.957184 -0.002665 -0.000825 -2.997681 -0.002743 0.000330 -3.644112 11.302407 6.235524 7.060771 -0.625921 11.980016 15.454593 -11.565753 -5.655154 -0.019678 -48.280598 -4.420772 4.724592 0.129027 -33.248386 -0.439470 -6.930282 5.921572 6.294598 -0.000017 0.000009 0.000010 0.000002 -0.000001 -0.000005 0.000003 0.000000 0.000000 -0.000019 0.000016 0.000009 -0.000007 -0.000004 -0.000004 0.000005 -0.000003 0.000000 -0.000009 0.000003 0.000002 0.000007 0.000000 0.000007 -0.000002 0.000001 -0.000002 -0.000019 0.000011 0.000004 -0.000003 -0.000004 -0.000003 0.000002 -0.000001 0.000005 -0.000009 0.000005 0.000010 0.000002 0.000002 0.000003 0.000005 -0.000003 -0.000004 1.093004 2.969068 -0.010379 71.832283 42.444908 58.959137 -178.492752 36.808170 -179.505768 -48.161072 0.573363 43.168270 -0.000004 -0.000007 0.000010 -0.000001 0.000003 -0.000005 -0.000001 -0.000004 0.000007 0.000001 -0.000004 -0.000002 0.000000 0.000002 -0.000002 0.000001 0.000001 0.000003 0.000006 0.000002 0.000002 -0.000002 -0.000001 -0.000003 0.000003 0.000003 -0.000007 0.000002 0.000001 -0.000003 -0.000001 -0.000002 0.000003 0.000001 -0.000001 -0.000002 0.000008 0.000004 0.000005 0.000004 -0.000002 0.000007 -0.000004 -0.000000 -0.000003 0.760604 15.288701 6.664241 0.016417 0.206257 9.099502 8.644784 10.530899 -2.917445 0.000001 0.000003 -0.000001 -2.156298 -31.056129 20.016943 -0.010206 -0.162868 7.173776 -9.526918 -15.045044 -12.748343 -0.000000 -0.000000 0.000002
